<?xml version="1.0" encoding="UTF-8" standalone="no"?>
<svg
   width="790"
   height="660"
   viewBox="415 225 790 660"
   version="1.1"
   id="svg8"
   sodipodi:docname="guided_ai_labs_logo_COMPLETE_BLACK_BG_SAFE_LIVE_SOURCE.svg"
   xmlns:inkscape="http://www.inkscape.org/namespaces/inkscape"
   xmlns:sodipodi="http://sodipodi.sourceforge.net/DTD/sodipodi-0.dtd"
   xmlns="http://www.w3.org/2000/svg"
   xmlns:svg="http://www.w3.org/2000/svg">
  <defs
     id="defs8" />
  <sodipodi:namedview
     id="namedview8"
     pagecolor="#ffffff"
     bordercolor="#000000"
     borderopacity="0.25"
     inkscape:showpageshadow="2"
     inkscape:pageopacity="0.0"
     inkscape:pagecheckerboard="0"
     inkscape:deskcolor="#d1d1d1" />
  <title
     id="title1">Guided AI Labs logo - complete - black background safe</title>
  <g
     fill="none"
     stroke-linecap="round"
     stroke-linejoin="round"
     id="g2">
    <path
       d="M 560 555 L 800 315 L 1040 555"
       stroke="#FFFFFF"
       stroke-width="30"
       id="path1" />
    <path
       d="M 625 555 H 975"
       stroke="#FFFFFF"
       stroke-width="30"
       id="path2" />
  </g>
  <circle
     cx="560"
     cy="555"
     fill="#FFFFFF"
     r="22"
     id="circle2" />
  <circle
     cx="1040"
     cy="555"
     fill="#FFFFFF"
     r="22"
     id="circle3" />
  <g
     fill="none"
     stroke-linecap="round"
     stroke-linejoin="round"
     id="g5">
    <path
       d="M 560 555 L 800 315 L 1040 555"
       stroke="#0F1720"
       stroke-width="24"
       id="path3" />
    <path
       d="M 625 555 H 975"
       stroke="#0F1720"
       stroke-width="24"
       id="path4" />
    <path
       d="M 675 525 L 800 400 L 925 525"
       stroke="#0B82A6"
       stroke-width="20"
       id="path5" />
  </g>
  <polygon
     fill="#0B82A6"
     points="800,265 835,315 800,365 765,315"
     id="polygon5" />
  <circle
     cx="560"
     cy="555"
     fill="#0F1720"
     r="18"
     id="circle5" />
  <circle
     cx="1040"
     cy="555"
     fill="#0F1720"
     r="18"
     id="circle6" />
  <g
     font-family="Inter, 'Inter Display', Arial, sans-serif"
     font-size="92"
     font-weight="bold"
     stroke-linejoin="round"
     id="g8">
    <path
       d="m 481.71289,780.89844 c 16.80078,0 28.88477,-10.64649 28.88477,-28.21094 v -8.35547 h -27.85157 v 10.42188 h 14.55469 c -0.22461,8.58007 -5.97461,13.9707 -15.49805,13.9707 -10.73632,0 -17.65429,-8.04102 -17.65429,-22.23633 0,-14.19531 7.14258,-22.14648 17.47461,-22.14648 7.45703,0 12.48828,3.9082 14.375,10.28711 h 13.92578 c -1.88672,-13.20704 -13.47656,-22.46094 -28.52539,-22.46094 -17.60938,0 -31.17578,12.75781 -31.17578,34.45508 0,21.1582 12.71289,34.27539 31.49023,34.27539 z m 56.37695,-0.26953 c 7.63672,0 12.75782,-3.95313 15.58789,-11.05079 L 553.85742,780 h 12.75781 v -50.22266 h -13.52148 v 29.06446 c 0,6.64843 -4.04297,10.51172 -9.74805,10.51172 -5.66015,0 -9.07422,-3.72852 -9.07422,-9.97266 v -29.60352 h -13.47656 v 31.93946 c 0,11.76953 6.87305,18.91211 17.29492,18.91211 z M 578.07031,780 h 13.47656 v -50.22266 h -13.47656 z m 6.73828,-56.78125 c 4.04297,0 7.41211,-3.05469 7.41211,-6.91797 0,-3.81836 -3.36914,-6.91797 -7.41211,-6.91797 -4.08789,0 -7.41211,3.09961 -7.41211,6.91797 0,3.86328 3.32422,6.91797 7.41211,6.91797 z m 36.56641,57.63477 c 8.17578,0 12.35352,-4.85157 14.19531,-8.89454 h 0.67383 V 780 h 13.25195 v -66.93359 h -13.47656 v 25.15625 h -0.44922 c -1.79687,-3.99805 -5.75,-9.07422 -14.28515,-9.07422 -11.14063,0 -20.39454,8.66992 -20.39454,25.83008 0,16.71093 8.89454,25.875 20.48438,25.875 z m 4.13281,-10.82618 c -7.00781,0 -10.78125,-6.24414 -10.78125,-15.09375 0,-8.80468 3.6836,-15.0039 10.78125,-15.0039 6.91797,0 10.78125,5.88476 10.78125,15.0039 0,9.07422 -3.9082,15.09375 -10.78125,15.09375 z m 58.17383,10.96094 c 11.67969,0 19.67578,-5.43555 22.14648,-13.79101 l -12.21875,-2.29102 c -1.4375,3.86328 -4.98632,5.92969 -9.70312,5.92969 -6.7832,0 -11.36523,-4.22266 -11.67969,-12.44336 h 34.36524 v -3.77344 c 0,-17.16016 -10.4668,-25.4707 -23.58399,-25.4707 -14.68945,0 -24.12304,10.51172 -24.12304,26.00976 0,15.85742 9.43359,25.83008 24.79687,25.83008 z m -11.36523,-31.04101 c 0.53906,-6.19922 4.40234,-10.64649 10.82617,-10.64649 6.24414,0 9.79297,4.08789 10.46679,10.64649 z m 61.85742,30.90625 c 8.17578,0 12.35351,-4.85157 14.19531,-8.89454 h 0.67383 V 780 h 13.25195 v -66.93359 h -13.47656 v 25.15625 h -0.44922 c -1.79687,-3.99805 -5.75,-9.07422 -14.28516,-9.07422 -11.14062,0 -20.39453,8.66992 -20.39453,25.83008 0,16.71093 8.89453,25.875 20.48438,25.875 z m 4.13281,-10.82618 c -7.00781,0 -10.78125,-6.24414 -10.78125,-15.09375 0,-8.80468 3.68359,-15.0039 10.78125,-15.0039 6.91797,0 10.78125,5.88476 10.78125,15.0039 0,9.07422 -3.9082,15.09375 -10.78125,15.09375 z"
       id="text6"
       style="fill:#0f1720;stroke:#ffffff;stroke-width:4;paint-order:stroke fill"
       aria-label="Guided" />
    <path
       d="m 806.20117,780 h 15.13867 l 4.98633,-15.54297 h 23.76367 L 855.25586,780 h 15.22851 l -23.44921,-66.93359 h -17.96875 z m 23.53906,-26.2793 1.93164,-6.01953 c 2.02149,-6.73828 3.99805,-14.68945 6.24415,-23.89844 2.33593,9.11914 4.44726,17.02539 6.60351,23.89844 l 2.02149,6.01953 z m 62.71094,-40.65429 H 878.75 V 780 h 13.70117 z"
       id="text7"
       style="fill:#0b82a6"
       aria-label="AI" />
    <path
       d="m 930.06445,780 h 42.58594 v -11.36523 h -28.88477 v -55.56836 h -13.70117 z m 65.72071,0.98828 c 7.41214,0 12.26364,-3.2793 14.68944,-7.95117 h 0.4492 V 780 h 12.7578 v -33.82617 c 0,-12.17383 -10.5117,-17.02539 -21.2929,-17.02539 -11.2305,0 -19.31643,4.98633 -21.87698,13.70117 l 12.35351,2.06641 c 1.07813,-3.23438 4.26758,-5.79493 9.47847,-5.79493 5.0313,0 7.8614,2.42578 7.8614,6.69336 v 0.22461 c 0,3.2793 -3.5489,3.63867 -12.17385,4.49219 -9.88281,0.94336 -18.95703,4.17773 -18.95703,15.4082 0,9.92774 7.14258,15.04883 16.71094,15.04883 z m 3.81836,-9.47851 c -4.44727,0 -7.5918,-2.02149 -7.5918,-5.92969 0,-4.04297 3.32422,-5.97461 8.31058,-6.69336 2.9648,-0.4043 8.3105,-1.12305 9.9726,-2.29102 v 5.43555 c 0,5.30078 -4.4023,9.47852 -10.69138,9.47852 z m 63.69918,9.34375 c 11.5899,0 20.4395,-9.16407 20.4395,-25.875 0,-17.16016 -9.209,-25.83008 -20.3496,-25.83008 -8.5352,0 -12.4883,5.07617 -14.3301,9.07422 h -0.4043 v -25.15625 h -13.4766 V 780 h 13.252 v -8.04102 h 0.6289 c 1.8867,4.04297 6.0195,8.89454 14.2402,8.89454 z m -4.1328,-10.82618 c -6.873,0 -10.8261,-6.01953 -10.8261,-15.09375 0,-9.11914 3.9082,-15.0039 10.8261,-15.0039 7.0528,0 10.7813,6.19922 10.7813,15.0039 0,8.84961 -3.7735,15.09375 -10.7813,15.09375 z m 53.9512,10.96094 c 13.1621,0 22.4609,-6.60351 22.4609,-16.48633 0,-7.14258 -4.6718,-11.58984 -14.375,-13.5664 l -9.0293,-1.79688 c -4.7617,-0.98828 -6.4687,-2.74023 -6.4687,-5.25586 0,-3.00976 3.414,-5.07617 7.8164,-5.07617 4.8965,0 7.7266,2.42578 8.8047,5.83984 l 11.9492,-2.11132 c -1.8867,-8.17579 -9.0293,-13.38672 -20.9336,-13.38672 -12.7129,0 -21.1133,5.92968 -21.1133,15.58789 0,7.50195 4.7617,12.26367 14.4649,14.24023 l 8.6699,1.79688 c 4.4023,0.89843 6.4687,2.51562 6.4687,5.16601 0,3.00977 -3.1894,5.16602 -8.3105,5.16602 -5.5254,0 -8.7598,-2.29102 -10.0625,-7.00781 l -12.5332,2.15625 c 1.7519,9.34375 10.0625,14.73437 22.1914,14.73437 z"
       id="text8"
       style="fill:#0f1720;stroke:#ffffff;stroke-width:4;paint-order:stroke fill"
       aria-label="Labs" />
  </g>
  <line
     stroke="#E8EDF2"
     stroke-linecap="round"
     stroke-width="3"
     x1="525"
     x2="1075"
     y1="838"
     y2="838"
     id="line8" />
</svg>
